<svg width="34" height="34" viewBox="0 0 34 34" fill="none" xmlns="http://www.w3.org/2000/svg">
<path d="M26.445 15.6733L11.3146 0.543166C10.9646 0.192942 10.4975 0 9.99937 0C9.50126 0 9.03411 0.192942 8.68416 0.543166L7.56991 1.65714C6.84486 2.38302 6.84486 3.56278 7.56991 4.28756L20.2753 16.993L7.55582 29.7124C7.20587 30.0627 7.01265 30.5295 7.01265 31.0274C7.01265 31.5258 7.20587 31.9926 7.55582 32.3431L8.67007 33.4568C9.02029 33.8071 9.48717 34 9.98528 34C10.4834 34 10.9505 33.8071 11.3005 33.4568L26.445 18.3129C26.7958 17.9615 26.9885 17.4924 26.9873 16.9938C26.9885 16.4932 26.7958 16.0244 26.445 15.6733Z" fill="#CACACA"/>
</svg>
